<svg width="60" height="60" viewBox="0 0 60 60" fill="none" xmlns="http://www.w3.org/2000/svg">
<g clip-path="url(#clip0_188_389)">
<rect width="60" height="60" rx="10" fill="#D7D7D7"/>
<path d="M37.3722 24.36C37.2788 24.3467 37.1855 24.3467 37.0922 24.36C35.0255 24.2933 33.3855 22.6 33.3855 20.52C33.3855 18.4 35.1055 16.6667 37.2388 16.6667C39.3588 16.6667 41.0922 18.3867 41.0922 20.52C41.0788 22.6 39.4388 24.2933 37.3722 24.36Z" fill="#255D81"/>
<path d="M41.7222 33.6005C40.2288 34.6005 38.1355 34.9739 36.2022 34.7205C36.7088 33.6272 36.9755 32.4139 36.9888 31.1339C36.9888 29.8005 36.6955 28.5339 36.1355 27.4272C38.1088 27.1605 40.2022 27.5339 41.7088 28.5339C43.8155 29.9205 43.8155 32.2005 41.7222 33.6005Z" fill="#255D81"/>
<path d="M22.5869 24.36C22.6802 24.3467 22.7736 24.3467 22.8669 24.36C24.9336 24.2933 26.5736 22.6 26.5736 20.52C26.5736 18.3867 24.8536 16.6667 22.7202 16.6667C20.6002 16.6667 18.8802 18.3867 18.8802 20.52C18.8802 22.6 20.5202 24.2933 22.5869 24.36Z" fill="#255D81"/>
<path d="M22.7348 31.1341C22.7348 32.4275 23.0148 33.6541 23.5215 34.7608C21.6415 34.9608 19.6815 34.5608 18.2415 33.6141C16.1348 32.2141 16.1348 29.9341 18.2415 28.5341C19.6682 27.5741 21.6815 27.1874 23.5748 27.4008C23.0282 28.5208 22.7348 29.7875 22.7348 31.1341Z" fill="#255D81"/>
<path d="M30.161 35.16C30.0544 35.1467 29.9344 35.1467 29.8144 35.16C27.361 35.08 25.401 33.0667 25.401 30.5867C25.4143 28.0533 27.4544 26 30.001 26C32.5344 26 34.5877 28.0533 34.5877 30.5867C34.5744 33.0667 32.6277 35.08 30.161 35.16Z" fill="#255D81"/>
<path d="M25.8277 37.9208C23.8144 39.2675 23.8144 41.4808 25.8277 42.8141C28.1211 44.3475 31.8811 44.3475 34.1744 42.8141C36.1878 41.4675 36.1878 39.2541 34.1744 37.9208C31.8944 36.3875 28.1344 36.3875 25.8277 37.9208Z" fill="#255D81"/>
</g>
<defs>
<clipPath id="clip0_188_389">
<rect width="60" height="60" rx="10" fill="white"/>
</clipPath>
</defs>
</svg>
