<svg width="40" height="40" viewBox="0 0 40 40" fill="none" xmlns="http://www.w3.org/2000/svg">
<path d="M8 8C8 6.93913 8.42143 5.92172 9.17157 5.17157C9.92172 4.42143 10.9391 4 12 4H28C29.0609 4 30.0783 4.42143 30.8284 5.17157C31.5786 5.92172 32 6.93913 32 8V18.414C30.1159 17.8791 28.1232 17.8569 26.2276 18.3498C24.3321 18.8427 22.6026 19.8327 21.2176 21.2176C19.8327 22.6026 18.8427 24.3321 18.3498 26.2276C17.8569 28.1232 17.8791 30.1159 18.414 32H10C10 32.5304 10.2107 33.0391 10.5858 33.4142C10.9609 33.7893 11.4696 34 12 34H19.2C19.568 34.7173 20.006 35.384 20.514 36H12C10.9391 36 9.92172 35.5786 9.17157 34.8284C8.42143 34.0783 8 33.0609 8 32V8ZM29 38C31.3869 38 33.6761 37.0518 35.364 35.364C37.0518 33.6761 38 31.3869 38 29C38 26.6131 37.0518 24.3239 35.364 22.636C33.6761 20.9482 31.3869 20 29 20C26.6131 20 24.3239 20.9482 22.636 22.636C20.9482 24.3239 20 26.6131 20 29C20 31.3869 20.9482 33.6761 22.636 35.364C24.3239 37.0518 26.6131 38 29 38ZM29 24C29.2652 24 29.5196 24.1054 29.7071 24.2929C29.8946 24.4804 30 24.7348 30 25V28H33C33.2652 28 33.5196 28.1054 33.7071 28.2929C33.8946 28.4804 34 28.7348 34 29C34 29.2652 33.8946 29.5196 33.7071 29.7071C33.5196 29.8946 33.2652 30 33 30H30V33C30 33.2652 29.8946 33.5196 29.7071 33.7071C29.5196 33.8946 29.2652 34 29 34C28.7348 34 28.4804 33.8946 28.2929 33.7071C28.1054 33.5196 28 33.2652 28 33V30H25C24.7348 30 24.4804 29.8946 24.2929 29.7071C24.1054 29.5196 24 29.2652 24 29C24 28.7348 24.1054 28.4804 24.2929 28.2929C24.4804 28.1054 24.7348 28 25 28H28V25C28 24.7348 28.1054 24.4804 28.2929 24.2929C28.4804 24.1054 28.7348 24 29 24ZM13.5 8C13.1022 8 12.7206 8.15804 12.4393 8.43934C12.158 8.72064 12 9.10218 12 9.5V10.5C12 11.328 12.672 12 13.5 12H26.5C26.8978 12 27.2794 11.842 27.5607 11.5607C27.842 11.2794 28 10.8978 28 10.5V9.5C28 9.10218 27.842 8.72064 27.5607 8.43934C27.2794 8.15804 26.8978 8 26.5 8H13.5Z" fill="#255D81"/>
</svg>
