<svg width="28" height="28" viewBox="0 0 28 28" fill="none" xmlns="http://www.w3.org/2000/svg">
<path d="M12.8268 6.64066V24.9933M12.8004 24.5882C12.5339 24.5882 11.9879 24.2465 10.8983 23.5632C9.79066 22.8687 8.26061 22.1769 6.29974 21.7421C4.09887 21.2565 2.99963 21.0136 2.49922 20.2951C2 19.5751 2 18.4259 2 16.1233V7.0783C2 4.56116 2 3.30189 2.77883 2.52684C3.55645 1.75179 4.47088 1.95367 6.29854 2.35743C9.90826 3.15648 12.0587 4.82657 12.8004 5.78515C13.542 4.82657 15.6925 3.15648 19.3022 2.35884C21.1298 1.95367 22.0443 1.75179 22.8219 2.52684C23.6007 3.30189 23.6007 4.55975 23.6007 7.0783V11.1766M24.6375 15.3271L25.4716 16.3041C25.6391 16.5003 25.772 16.7335 25.8626 16.9903C25.9533 17.2471 26 17.5224 26 17.8005C26 18.0786 25.9533 18.3539 25.8626 18.6107C25.772 18.8675 25.6391 19.1007 25.4716 19.297L21.101 24.5148C20.7573 24.9187 20.3176 25.1904 19.8398 25.294L17.1313 25.983C17.0331 26.0088 16.9309 26.0052 16.8342 25.9724C16.7374 25.9396 16.6493 25.8787 16.5778 25.7953C16.5063 25.712 16.4538 25.6088 16.4252 25.4953C16.3965 25.3818 16.3925 25.2616 16.4137 25.1458L16.9897 21.9906C17.0797 21.4301 17.3113 20.9148 17.6557 20.5125L22.0815 15.3257C22.421 14.9283 22.8805 14.7052 23.3595 14.7052C23.8385 14.7052 24.298 14.9297 24.6375 15.3271Z" stroke="#255D81" stroke-width="2.5" stroke-linecap="round" stroke-linejoin="round"/>
</svg>
