<svg width="40" height="40" viewBox="0 0 40 40" fill="none" xmlns="http://www.w3.org/2000/svg">
<path d="M35.3953 8.81403L20.3953 3.81403C20.1387 3.72849 19.8613 3.72849 19.6047 3.81403L4.60469 8.81403C4.35579 8.89701 4.13931 9.05619 3.98591 9.26904C3.83252 9.48189 3.74998 9.73761 3.75 9.99997V22.5C3.75 22.8315 3.8817 23.1494 4.11612 23.3839C4.35054 23.6183 4.66848 23.75 5 23.75C5.33152 23.75 5.64946 23.6183 5.88388 23.3839C6.1183 23.1494 6.25 22.8315 6.25 22.5V11.7343L11.4984 13.4828C10.104 15.7356 9.66057 18.4497 10.2655 21.0292C10.8705 23.6087 12.4744 25.8426 14.725 27.2406C11.9125 28.3437 9.48125 30.339 7.70312 33.0672C7.61065 33.2046 7.54642 33.3591 7.51416 33.5215C7.4819 33.684 7.48226 33.8513 7.51522 34.0136C7.54818 34.176 7.61308 34.3302 7.70615 34.4672C7.79922 34.6043 7.9186 34.7214 8.05735 34.8119C8.1961 34.9024 8.35146 34.9645 8.51439 34.9944C8.67732 35.0243 8.84457 35.0216 9.00643 34.9863C9.16829 34.951 9.32152 34.8839 9.45722 34.7889C9.59291 34.6939 9.70837 34.5728 9.79688 34.4328C12.1516 30.8203 15.8703 28.75 20 28.75C24.1297 28.75 27.8484 30.8203 30.2031 34.4328C30.3865 34.7053 30.6697 34.8947 30.9915 34.96C31.3134 35.0253 31.648 34.9614 31.9231 34.782C32.1982 34.6026 32.3916 34.3221 32.4616 34.0012C32.5315 33.6803 32.4723 33.3448 32.2969 33.0672C30.5187 30.339 28.0781 28.3437 25.275 27.2406C27.5235 25.8427 29.1258 23.6102 29.7307 21.0326C30.3356 18.455 29.8935 15.7428 28.5016 13.4906L35.3953 11.1937C35.6443 11.1108 35.8608 10.9516 36.0143 10.7388C36.1677 10.5259 36.2503 10.2702 36.2503 10.0078C36.2503 9.74539 36.1677 9.48964 36.0143 9.27679C35.8608 9.06394 35.6443 8.90477 35.3953 8.82185V8.81403ZM27.5 18.75C27.5003 19.9357 27.2195 21.1046 26.6806 22.1608C26.1418 23.2169 25.3601 24.1303 24.3999 24.8259C23.4397 25.5215 22.3282 25.9795 21.1567 26.1624C19.9851 26.3452 18.7869 26.2477 17.6604 25.8778C16.5338 25.508 15.5111 24.8762 14.6759 24.0345C13.8408 23.1928 13.2171 22.1651 12.8561 21.0357C12.4951 19.9063 12.407 18.7074 12.599 17.5373C12.7911 16.3673 13.2578 15.2594 13.9609 14.3047L19.6047 16.1797C19.8613 16.2652 20.1387 16.2652 20.3953 16.1797L26.0391 14.3047C26.9886 15.5922 27.5006 17.1501 27.5 18.75Z" fill="#255D81"/>
</svg>
