<svg width="80" height="88" viewBox="0 0 80 88" fill="none" xmlns="http://www.w3.org/2000/svg">
<rect width="80" height="88" rx="12" fill="#A7A7A7" fill-opacity="0.48"/>
<path d="M57.5 32.487V53.2945C57.5 54.992 56.1175 56.5495 54.42 56.7595L53.8775 56.8295C51.0075 57.2145 46.965 58.4045 43.71 59.7695C42.5725 60.242 41.3125 59.3845 41.3125 58.142V33.7995C41.3125 33.152 41.68 32.557 42.2575 32.242C45.46 30.5095 50.3075 28.9695 53.5975 28.6895H53.7025C55.8025 28.6895 57.5 30.387 57.5 32.487Z" fill="black"/>
<path d="M37.7395 32.242C34.537 30.5095 29.6895 28.9695 26.3995 28.6895H26.277C24.177 28.6895 22.4795 30.387 22.4795 32.487V53.2945C22.4795 54.992 23.862 56.5495 25.5595 56.7595L26.102 56.8295C28.972 57.2145 33.0145 58.4045 36.2695 59.7695C37.407 60.242 38.667 59.3845 38.667 58.142V33.7995C38.667 33.1345 38.317 32.557 37.7395 32.242ZM27.747 37.5445H31.6845C32.402 37.5445 32.997 38.1395 32.997 38.857C32.997 39.592 32.402 40.1695 31.6845 40.1695H27.747C27.0295 40.1695 26.4345 39.592 26.4345 38.857C26.4345 38.1395 27.0295 37.5445 27.747 37.5445ZM32.997 45.4195H27.747C27.0295 45.4195 26.4345 44.842 26.4345 44.107C26.4345 43.3895 27.0295 42.7945 27.747 42.7945H32.997C33.7145 42.7945 34.3095 43.3895 34.3095 44.107C34.3095 44.842 33.7145 45.4195 32.997 45.4195Z" fill="black"/>
</svg>
