<svg width="80" height="88" viewBox="0 0 80 88" fill="none" xmlns="http://www.w3.org/2000/svg">
<rect width="80" height="88" rx="12" fill="#A7A7A7" fill-opacity="0.48"/>
<path d="M37.55 30.2625C37.55 30.595 37.27 30.875 36.9375 30.875H34.96C31.18 30.875 28.1 33.955 28.1 37.735V53.8875C28.1 54.22 27.82 54.5 27.4875 54.5H26.2625C24.18 54.5 22.5 52.82 22.5 50.7375V30.2625C22.5 28.18 24.18 26.5 26.2625 26.5H33.7875C35.87 26.5 37.55 28.18 37.55 30.2625Z" fill="black"/>
<path d="M57.5007 30.2625V50.7375C57.5007 52.82 55.8207 54.5 53.7382 54.5H52.6357C52.3032 54.5 52.0232 54.22 52.0232 53.8875V37.735C52.0232 33.955 48.9432 30.875 45.1632 30.875H43.0632C42.7307 30.875 42.4507 30.595 42.4507 30.2625C42.4507 28.18 44.1307 26.5 46.2132 26.5H53.7382C55.8207 26.5 57.5007 28.18 57.5007 30.2625Z" fill="black"/>
<path d="M45.1611 33.5H34.9586C32.6136 33.5 30.7236 35.39 30.7236 37.735V57.265C30.7236 59.61 32.6136 61.5 34.9586 61.5H37.8111C38.3011 61.5 38.6861 61.115 38.6861 60.625V56.25C38.6861 55.5325 39.2811 54.9375 39.9986 54.9375C40.7161 54.9375 41.3111 55.5325 41.3111 56.25V60.625C41.3111 61.115 41.6961 61.5 42.1861 61.5H45.1786C47.5061 61.5 49.3961 59.61 49.3961 57.2825V37.735C49.3961 35.39 47.5061 33.5 45.1611 33.5ZM43.4986 48.8125H36.4986C35.7811 48.8125 35.1861 48.2175 35.1861 47.5C35.1861 46.7825 35.7811 46.1875 36.4986 46.1875H43.4986C44.2161 46.1875 44.8111 46.7825 44.8111 47.5C44.8111 48.2175 44.2161 48.8125 43.4986 48.8125ZM43.4986 43.5625H36.4986C35.7811 43.5625 35.1861 42.9675 35.1861 42.25C35.1861 41.5325 35.7811 40.9375 36.4986 40.9375H43.4986C44.2161 40.9375 44.8111 41.5325 44.8111 42.25C44.8111 42.9675 44.2161 43.5625 43.4986 43.5625Z" fill="black"/>
</svg>
