<svg width="34" height="34" viewBox="0 0 34 34" fill="none" xmlns="http://www.w3.org/2000/svg">
<path d="M15.0167 5.87921C15.0167 6.14837 14.79 6.37504 14.5208 6.37504H12.92C9.86001 6.37504 7.36668 8.86837 7.36668 11.9284V25.0042C7.36668 25.2734 7.14001 25.5 6.87084 25.5H5.87918C4.19334 25.5 2.83334 24.14 2.83334 22.4542V5.87921C2.83334 4.19337 4.19334 2.83337 5.87918 2.83337H11.9708C13.6567 2.83337 15.0167 4.19337 15.0167 5.87921Z" fill="#255D81"/>
<path d="M31.1672 5.87921V22.4542C31.1672 24.14 29.8072 25.5 28.1214 25.5H27.2289C26.9597 25.5 26.7331 25.2734 26.7331 25.0042V11.9284C26.7331 8.86837 24.2397 6.37504 21.1797 6.37504H19.4797C19.2106 6.37504 18.9839 6.14837 18.9839 5.87921C18.9839 4.19337 20.3439 2.83337 22.0297 2.83337H28.1214C29.8072 2.83337 31.1672 4.19337 31.1672 5.87921Z" fill="#255D81"/>
<path d="M21.178 8.5H12.9189C11.0206 8.5 9.49057 10.03 9.49057 11.9283V27.7383C9.49057 29.6367 11.0206 31.1667 12.9189 31.1667H15.228C15.6247 31.1667 15.9364 30.855 15.9364 30.4583V26.9167C15.9364 26.3358 16.418 25.8542 16.9989 25.8542C17.5797 25.8542 18.0614 26.3358 18.0614 26.9167V30.4583C18.0614 30.855 18.373 31.1667 18.7697 31.1667H21.1922C23.0764 31.1667 24.6064 29.6367 24.6064 27.7525V11.9283C24.6064 10.03 23.0764 8.5 21.178 8.5ZM19.8322 20.8958H14.1656C13.5847 20.8958 13.1031 20.4142 13.1031 19.8333C13.1031 19.2525 13.5847 18.7708 14.1656 18.7708H19.8322C20.413 18.7708 20.8947 19.2525 20.8947 19.8333C20.8947 20.4142 20.413 20.8958 19.8322 20.8958ZM19.8322 16.6458H14.1656C13.5847 16.6458 13.1031 16.1642 13.1031 15.5833C13.1031 15.0025 13.5847 14.5208 14.1656 14.5208H19.8322C20.413 14.5208 20.8947 15.0025 20.8947 15.5833C20.8947 16.1642 20.413 16.6458 19.8322 16.6458Z" fill="#255D81"/>
</svg>
